<svg width="17" height="19" viewBox="0 0 17 19" fill="none" xmlns="http://www.w3.org/2000/svg">
<path fill-rule="evenodd" clip-rule="evenodd" d="M15.4859 3.5019H12.7514C12.4447 1.49228 10.6125 0 8.45172 0C6.29095 0 4.45873 1.49228 4.15208 3.5019H1.41754C0.689128 3.5019 0.0986328 4.05671 0.0986328 4.7411V17.133C0.0986328 17.8174 0.689128 18.3722 1.41754 18.3722H15.4859C16.2143 18.3722 16.8048 17.8174 16.8048 17.133V4.7411C16.8048 4.05671 16.2143 3.5019 15.4859 3.5019ZM8.45143 1.23047C9.85168 1.31693 11.0387 2.22963 11.4058 3.50199H5.49707C5.86412 2.22963 7.05119 1.31693 8.45143 1.23047ZM15.4853 17.1337H1.41699V4.74109H4.0548V5.98035C4.0548 6.32257 4.35005 6.59998 4.71425 6.59998C5.07846 6.59998 5.37371 6.32257 5.37371 5.98035V4.74109H11.5286V5.98035C11.5286 6.32257 11.8238 6.59998 12.188 6.59998C12.5523 6.59998 12.8475 6.32257 12.8475 5.98035V4.74109H15.4853V17.1337Z" fill="#AAA3A3"/>
</svg>
