<svg width="27" height="27" viewBox="0 0 27 27" fill="none" xmlns="http://www.w3.org/2000/svg">
<circle cx="13.1364" cy="13.1364" r="12.6364" fill="white" stroke="#DDDBDB"/>
<path d="M6.15758 17.6236C6.87995 17.6236 7.46555 17.051 7.46555 16.3447C7.46555 15.6384 6.87995 15.0658 6.15758 15.0658C5.43521 15.0658 4.84961 15.6384 4.84961 16.3447C4.84961 17.051 5.43521 17.6236 6.15758 17.6236Z" fill="#AAA3A3"/>
<path d="M7.46564 14.213C8.4288 14.213 9.2096 13.4496 9.2096 12.5078C9.2096 11.5661 8.4288 10.8026 7.46564 10.8026C6.50248 10.8026 5.72168 11.5661 5.72168 12.5078C5.72168 13.4496 6.50248 14.213 7.46564 14.213Z" fill="#AAA3A3"/>
<path d="M11.8252 6.51129H14.8946C15.0365 6.51129 15.1742 6.53451 15.3131 6.55086V5.65869H11.8252V6.51129Z" fill="#AAA3A3"/>
<path d="M15.3127 18.9026C15.3127 18.1974 14.7259 17.6237 14.0047 17.6237C13.7887 17.6237 13.5878 17.68 13.4081 17.7711C13.1328 17.1827 12.5287 16.7711 11.8247 16.7711C11.746 16.7711 11.6709 16.7838 11.5949 16.7938C11.2958 16.2742 10.733 15.9185 10.0808 15.9185C9.11896 15.9185 8.33682 16.6832 8.33682 17.6237C8.33682 17.6497 8.34354 17.674 8.3447 17.6998C7.8343 17.8742 7.46484 18.3447 7.46484 18.9026C7.46484 19.6078 8.05157 20.2099 8.77282 20.2099H14.0047C14.7259 20.2099 15.3127 19.6078 15.3127 18.9026Z" fill="#AAA3A3"/>
<path d="M14.8944 7.36365H11.825V7.78995C11.825 8.49477 11.4363 9.10267 11.0246 9.71592C10.5609 10.407 10.0811 11.1214 10.0811 12.0814V15.0655C10.83 15.0655 11.5363 15.3857 12.0273 15.926C12.7064 15.978 13.334 16.2911 13.7793 16.7824C13.8542 16.7745 13.9292 16.7707 14.005 16.7707C15.2069 16.7707 16.1849 17.727 16.1849 18.9022C16.1849 19.3839 16.0144 19.8522 15.7378 20.2095H18.8009V12.6767C18.8009 12.0081 18.6847 11.2646 18.4097 10.5273C17.6791 8.56397 16.3467 7.36365 14.8944 7.36365ZM16.4076 13.9515C15.4709 14.2882 14.6275 12.9077 14.2839 11.9856C13.853 10.8279 13.7738 9.44491 14.6185 9.14431C15.4598 8.84249 16.3105 9.9532 16.7419 11.1106C17.1727 12.2683 17.2519 13.6509 16.4076 13.9515Z" fill="#AAA3A3"/>
<path d="M14.8936 9.95032C14.8349 10.0319 14.7331 10.6988 15.1036 11.6942C15.4744 12.6892 15.9904 13.1363 16.1335 13.1463C16.1923 13.0647 16.2936 12.3978 15.9232 11.4024C15.5528 10.407 15.0367 9.96032 14.8936 9.95032Z" fill="#AAA3A3"/>
</svg>
