<svg width="17" height="17" viewBox="0 0 17 17" fill="none" xmlns="http://www.w3.org/2000/svg">
<path fill-rule="evenodd" clip-rule="evenodd" d="M8.14014 0C3.64446 0 0 3.64446 0 8.14014C0 12.6358 3.64446 16.2803 8.14014 16.2803C12.6358 16.2803 16.2803 12.6358 16.2803 8.14014C16.2803 3.64446 12.6358 0 8.14014 0ZM8.14047 15.1701C4.25784 15.1701 1.11035 12.0226 1.11035 8.13998C1.11035 4.25735 4.25784 1.10986 8.14047 1.10986C12.0231 1.10986 15.1706 4.25735 15.1706 8.13998C15.1706 12.0226 12.0231 15.1701 8.14047 15.1701Z" fill="#CF9E23"/>
<path fill-rule="evenodd" clip-rule="evenodd" d="M7.03014 5.92034C7.03014 4.8986 6.20185 4.07031 5.18011 4.07031C4.15837 4.07031 3.33008 4.8986 3.33008 5.92034C3.33008 6.94209 4.15837 7.77037 5.18011 7.77037C6.20185 7.77037 7.03014 6.94209 7.03014 5.92034ZM4.44043 5.92019C4.44043 5.51149 4.77174 5.18018 5.18044 5.18018C5.58914 5.18018 5.92045 5.51149 5.92045 5.92019C5.92045 6.32889 5.58914 6.6602 5.18044 6.6602C4.77174 6.6602 4.44043 6.32889 4.44043 5.92019Z" fill="#CF9E23"/>
<path fill-rule="evenodd" clip-rule="evenodd" d="M10.3598 9.25C9.33805 9.25 8.50977 10.0783 8.50977 11.1C8.50977 12.1218 9.33805 12.9501 10.3598 12.9501C11.3815 12.9501 12.2098 12.1218 12.2098 11.1C12.2098 10.0783 11.3815 9.25 10.3598 9.25ZM10.3601 11.8399C9.95143 11.8399 9.62012 11.5086 9.62012 11.0999C9.62012 10.6912 9.95143 10.3599 10.3601 10.3599C10.7688 10.3599 11.1001 10.6912 11.1001 11.0999C11.1001 11.5086 10.7688 11.8399 10.3601 11.8399Z" fill="#CF9E23"/>
<path fill-rule="evenodd" clip-rule="evenodd" d="M11.8623 4.41769C11.6456 4.20127 11.2946 4.20127 11.0779 4.41769L4.04776 11.4478C3.89927 11.5862 3.83815 11.7945 3.88837 11.9912C3.93859 12.1878 4.09214 12.3414 4.28879 12.3916C4.48543 12.4418 4.69381 12.3807 4.83217 12.2322L11.8623 5.2021C12.0787 4.98541 12.0787 4.63437 11.8623 4.41769Z" fill="#CF9E23"/>
</svg>
