<svg width="19" height="17" viewBox="0 0 19 17" fill="none" xmlns="http://www.w3.org/2000/svg">
<path fill-rule="evenodd" clip-rule="evenodd" d="M14.1004 1.36755C12.2671 1.36755 10.8012 2.67658 9.89026 3.54327C8.96019 2.68377 7.46749 1.36755 5.63797 1.36755C2.95877 1.36755 1.09863 3.14049 1.09863 5.68303C1.09863 11.2032 8.79561 15.7525 9.13625 15.9359C9.50767 16.153 9.97814 16.153 10.3496 15.9359C10.6749 15.7453 18.3374 11.1745 18.3374 5.68662C18.3106 3.02182 16.6993 1.36755 14.1004 1.36755ZM9.69857 15.0325C9.69857 15.0325 2.21973 10.6813 2.21973 5.68266C2.21973 3.75155 3.55551 2.44617 5.61085 2.44617C7.66619 2.44617 9.49189 4.96344 9.87464 4.96344C10.2574 4.96344 12.0295 2.44617 14.0848 2.44617C16.1402 2.44617 17.1468 3.75155 17.1468 5.68266C17.1621 10.6345 9.69857 15.0325 9.69857 15.0325Z" fill="#DADADA"/>
<path d="M9.89026 3.54327L9.55091 3.91048L9.89524 4.22868L10.2349 3.90551L9.89026 3.54327ZM9.13625 15.9359L9.38862 15.5042L9.38103 15.4998L9.37329 15.4956L9.13625 15.9359ZM10.3496 15.9359L10.6019 16.3675L10.6023 16.3673L10.3496 15.9359ZM18.3374 5.68662H18.8374L18.8374 5.6816L18.3374 5.68662ZM9.69857 15.0325L9.44713 15.4647L9.70018 15.6119L9.95241 15.4633L9.69857 15.0325ZM17.1468 5.68266H16.6468L16.6468 5.68421L17.1468 5.68266ZM14.1004 0.867554C12.0431 0.867554 10.4425 2.32771 9.54561 3.18103L10.2349 3.90551C11.1599 3.02545 12.4911 1.86755 14.1004 1.86755V0.867554ZM10.2296 3.17606C9.31783 2.33347 7.68927 0.867554 5.63797 0.867554V1.86755C7.24571 1.86755 8.60255 3.03408 9.55091 3.91048L10.2296 3.17606ZM5.63797 0.867554C4.1868 0.867554 2.9233 1.34921 2.01896 2.20959C1.11279 3.07171 0.598633 4.28485 0.598633 5.68303H1.59863C1.59863 4.53868 2.01454 3.59407 2.70824 2.93409C3.40377 2.27236 4.40994 1.86755 5.63797 1.86755V0.867554ZM0.598633 5.68303C0.598633 8.66331 2.6619 11.3074 4.64711 13.1749C6.65204 15.061 8.69912 16.2684 8.89922 16.3761L9.37329 15.4956C9.23274 15.42 7.26101 14.261 5.3323 12.4466C3.38386 10.6136 1.59863 8.22296 1.59863 5.68303H0.598633ZM8.88388 16.3675C9.4112 16.6758 10.0746 16.6758 10.6019 16.3675L10.0972 15.5042C9.88167 15.6302 9.60414 15.6302 9.38862 15.5042L8.88388 16.3675ZM10.6023 16.3673C10.7797 16.2634 12.8134 15.0508 14.8093 13.1608C16.7832 11.2916 18.8374 8.65023 18.8374 5.68662H17.8374C17.8374 8.21087 16.0604 10.5989 14.1217 12.4347C12.205 14.2497 10.2447 15.4178 10.0968 15.5045L10.6023 16.3673ZM18.8374 5.6816C18.823 4.24958 18.3807 3.03593 17.5407 2.17799C16.699 1.31824 15.5084 0.867554 14.1004 0.867554V1.86755C15.2913 1.86755 16.2059 2.244 16.8262 2.87758C17.4483 3.51297 17.825 4.45887 17.8374 5.69165L18.8374 5.6816ZM9.69857 15.0325C9.95002 14.6004 9.9501 14.6004 9.95014 14.6004C9.95012 14.6004 9.95014 14.6004 9.9501 14.6004C9.95001 14.6004 9.94981 14.6002 9.9495 14.6001C9.94888 14.5997 9.94781 14.5991 9.9463 14.5982C9.94329 14.5964 9.93851 14.5936 9.93202 14.5898C9.91905 14.5821 9.89926 14.5703 9.87312 14.5545C9.82082 14.5229 9.7431 14.4753 9.6436 14.4127C9.44454 14.2874 9.15863 14.1019 8.81486 13.8636C8.12638 13.3864 7.21052 12.7003 6.29688 11.8634C4.43772 10.1604 2.71973 7.95223 2.71973 5.68266H1.71973C1.71973 8.41169 3.74115 10.8785 5.62142 12.6008C6.57749 13.4765 7.53135 14.1907 8.24515 14.6855C8.60252 14.9332 8.90089 15.1268 9.11083 15.2589C9.21583 15.325 9.29879 15.3758 9.35605 15.4104C9.38468 15.4277 9.40689 15.441 9.42222 15.4501C9.42988 15.4546 9.43583 15.4581 9.44 15.4605C9.44209 15.4618 9.44373 15.4627 9.44492 15.4634C9.44551 15.4638 9.446 15.4641 9.44636 15.4643C9.44655 15.4644 9.44674 15.4645 9.44683 15.4645C9.44699 15.4646 9.44713 15.4647 9.69857 15.0325ZM2.71973 5.68266C2.71973 4.83631 3.00975 4.16316 3.49096 3.70079C3.97379 3.23686 4.69007 2.94617 5.61085 2.94617V1.94617C4.47629 1.94617 3.49701 2.30817 2.79811 2.97971C2.09759 3.6528 1.71973 4.59791 1.71973 5.68266H2.71973ZM5.61085 2.94617C6.45008 2.94617 7.30121 3.46995 8.05137 4.09016C8.41878 4.39391 8.7313 4.69378 8.99787 4.93846C9.12589 5.05597 9.25209 5.16884 9.36329 5.25335C9.41884 5.29557 9.48356 5.34074 9.5527 5.37727C9.6115 5.40833 9.72831 5.46344 9.87464 5.46344V4.46344C9.92921 4.46344 9.96916 4.47426 9.98828 4.48044C10.0083 4.48692 10.0195 4.49288 10.0198 4.49308C10.0208 4.4936 10.0168 4.4915 10.007 4.48499C9.99745 4.47864 9.98471 4.46961 9.96838 4.4572C9.89845 4.40405 9.80317 4.32025 9.67409 4.20177C9.42647 3.97447 9.08235 3.64502 8.68856 3.31945C7.91635 2.68102 6.82697 1.94617 5.61085 1.94617V2.94617ZM9.87464 5.46344C10.0217 5.46344 10.1387 5.40787 10.198 5.37617C10.2673 5.33914 10.3318 5.29344 10.3868 5.25096C10.4968 5.16595 10.6211 5.05262 10.7466 4.93512C11.0083 4.69015 11.3139 4.39077 11.6745 4.08736C12.4101 3.46824 13.2474 2.94617 14.0848 2.94617V1.94617C12.8669 1.94617 11.7905 2.68273 11.0306 3.32225C10.6433 3.64816 10.3057 3.97809 10.0632 4.20511C9.93663 4.32361 9.84362 4.40694 9.77546 4.45959C9.74135 4.48595 9.7265 4.49433 9.72678 4.49417C9.72765 4.49371 9.73926 4.48745 9.75987 4.48075C9.77965 4.47431 9.81991 4.46344 9.87464 4.46344V5.46344ZM14.0848 2.94617C15.002 2.94617 15.6197 3.23351 16.0141 3.67386C16.4165 4.12297 16.6468 4.79852 16.6468 5.68266H17.6468C17.6468 4.63569 17.3738 3.693 16.759 3.00663C16.1363 2.31152 15.223 1.94617 14.0848 1.94617V2.94617ZM16.6468 5.68421C16.6502 6.79607 16.2332 7.90642 15.5663 8.96637C14.9002 10.025 14.0023 11.0054 13.0895 11.8469C12.1785 12.6869 11.2648 13.3774 10.5778 13.8584C10.2347 14.0985 9.94938 14.2856 9.75069 14.4121C9.65137 14.4754 9.57379 14.5234 9.52157 14.5554C9.49546 14.5713 9.4757 14.5832 9.46274 14.591C9.45626 14.5949 9.45148 14.5978 9.44846 14.5996C9.44695 14.6005 9.44588 14.6011 9.44526 14.6015C9.44494 14.6016 9.44474 14.6018 9.44466 14.6018C9.44461 14.6018 9.44463 14.6018 9.44461 14.6018C9.44466 14.6018 9.44473 14.6018 9.69857 15.0325C9.95241 15.4633 9.95255 15.4632 9.95271 15.4631C9.9528 15.4631 9.95299 15.463 9.95317 15.4629C9.95354 15.4626 9.95402 15.4624 9.95461 15.462C9.95579 15.4613 9.95743 15.4603 9.95951 15.4591C9.96366 15.4566 9.96959 15.4531 9.97723 15.4485C9.99251 15.4394 10.0147 15.426 10.0432 15.4085C10.1003 15.3736 10.1831 15.3223 10.2878 15.2556C10.4972 15.1223 10.7948 14.9271 11.1513 14.6776C11.8632 14.1792 12.8144 13.4607 13.7673 12.5821C14.7185 11.7052 15.6837 10.6576 16.4127 9.49891C17.1409 8.34152 17.651 7.04517 17.6468 5.68112L16.6468 5.68421Z" fill="#DADADA"/>
</svg>
