<svg width="68" height="117" viewBox="0 0 68 117" fill="none" xmlns="http://www.w3.org/2000/svg">
<path opacity="0.9" d="M67.1922 0.809509H0.795898V97.5681H67.1922V0.809509Z" fill="#FDC94C"/>
<path fill-rule="evenodd" clip-rule="evenodd" d="M3.43138 116.489H2.24435L0 107.598H1.21298L2.25732 112.113C2.52975 113.264 2.74381 114.291 2.90597 115.193C2.99679 114.594 3.23679 113.561 3.61949 112.1L4.79356 107.598H6.01303L7.08331 112.126C7.39467 113.442 7.60223 114.462 7.69305 115.18C7.8098 114.561 8.04332 113.534 8.40008 112.1L9.56117 107.598H10.7223L8.25738 116.489H7.07034L5.96114 111.882C5.68222 110.711 5.49411 109.743 5.39032 108.973C5.23026 109.955 5.01367 110.926 4.74167 111.882L3.43138 116.489ZM15.3861 107.414C15.929 107.393 16.4698 107.494 16.9691 107.712C17.4684 107.929 17.9137 108.257 18.2726 108.671C18.9849 109.646 19.3628 110.83 19.3488 112.044C19.3347 113.257 18.9294 114.433 18.1948 115.39C17.8206 115.794 17.3667 116.114 16.8626 116.328C16.3586 116.543 15.8157 116.647 15.2693 116.634C14.7327 116.65 14.1993 116.546 13.707 116.329C13.2148 116.111 12.7759 115.786 12.4217 115.377C11.6572 114.461 11.2632 113.285 11.319 112.086C11.2637 110.849 11.6715 109.636 12.4607 108.69C12.8223 108.266 13.2722 107.927 13.778 107.7C14.2838 107.472 14.833 107.361 15.3861 107.374V107.414ZM15.3472 108.355C14.9379 108.338 14.5312 108.428 14.1665 108.617C13.8017 108.806 13.4912 109.088 13.265 109.434C12.7497 110.21 12.4886 111.131 12.519 112.067C12.4927 112.984 12.7614 113.885 13.2845 114.633C13.522 114.96 13.8319 115.225 14.189 115.408C14.5461 115.591 14.9406 115.687 15.3407 115.687C15.7408 115.687 16.1352 115.591 16.4924 115.408C16.8495 115.225 17.1593 114.96 17.3969 114.633C17.8863 113.857 18.1463 112.955 18.1463 112.034C18.1463 111.112 17.8863 110.21 17.3969 109.434C17.1731 109.088 16.8651 108.806 16.5026 108.616C16.1402 108.426 15.7355 108.334 15.3277 108.348L15.3472 108.355ZM24.37 107.414C24.9128 107.398 25.4523 107.505 25.9493 107.727C26.4464 107.949 26.8884 108.28 27.2435 108.697C27.9558 109.672 28.3337 110.857 28.3197 112.07C28.3056 113.284 27.9003 114.459 27.1657 115.417C26.7915 115.821 26.3375 116.14 25.8335 116.355C25.3295 116.569 24.7866 116.673 24.2402 116.66C23.7058 116.675 23.1748 116.569 22.685 116.352C22.1951 116.135 21.7583 115.811 21.4056 115.403C20.6411 114.487 20.2471 113.312 20.3029 112.113C20.2475 110.875 20.6553 109.662 21.4445 108.717C21.8062 108.292 22.2561 107.954 22.7619 107.726C23.2677 107.498 23.8168 107.387 24.37 107.4V107.414ZM24.331 108.355C23.9218 108.338 23.5151 108.428 23.1503 108.617C22.7856 108.806 22.4751 109.088 22.2489 109.434C21.7335 110.21 21.4725 111.131 21.5029 112.067C21.4766 112.984 21.7453 113.885 22.2683 114.633C22.5059 114.96 22.8157 115.225 23.1729 115.408C23.53 115.591 23.9245 115.687 24.3246 115.687C24.7246 115.687 25.1191 115.591 25.4762 115.408C25.8334 115.225 26.1432 114.96 26.3808 114.633C26.8702 113.857 27.1302 112.955 27.1302 112.034C27.1302 111.112 26.8702 110.21 26.3808 109.434C26.1569 109.088 25.8489 108.806 25.4865 108.616C25.124 108.426 24.7194 108.334 24.3116 108.348L24.331 108.355ZM29.8381 116.489V107.73C30.6334 107.595 31.4384 107.529 32.2446 107.532C33.5275 107.434 34.7995 107.831 35.8057 108.644C36.2304 109.054 36.5623 109.552 36.7785 110.104C36.9946 110.656 37.0899 111.25 37.0577 111.843C37.0851 112.48 36.9842 113.116 36.7612 113.713C36.5381 114.309 36.1976 114.853 35.7603 115.311C34.9041 116.167 33.6003 116.595 31.8684 116.595C31.1902 116.599 30.5123 116.564 29.8381 116.489ZM30.9668 108.592V115.64C31.3479 115.684 31.7315 115.702 32.1149 115.693C32.6199 115.749 33.1309 115.689 33.6098 115.517C34.0886 115.345 34.5229 115.065 34.8803 114.698C35.2377 114.332 35.5088 113.888 35.6736 113.401C35.8383 112.913 35.8924 112.394 35.8317 111.882C35.8628 111.422 35.8 110.96 35.6471 110.525C35.4942 110.09 35.2545 109.692 34.943 109.355C34.5787 109.032 34.155 108.786 33.6963 108.63C33.2376 108.474 32.7531 108.412 32.2706 108.447C31.8353 108.442 31.4006 108.481 30.9733 108.565L30.9668 108.592ZM41.2415 116.489V107.598H45.9767V108.592H42.3896V111.553H45.7042V112.508H42.3896V116.489H41.2415ZM51.127 113.686L52.0675 116.489H53.2805L50.2772 107.572H48.9216L45.9248 116.489H47.0988L48.0005 113.712L51.127 113.686ZM48.2469 112.784L49.1032 110.204C49.2005 109.921 49.3497 109.388 49.5507 108.592C49.7324 109.316 49.8816 109.855 50.0048 110.217L50.8805 112.784H48.2469ZM55.6416 116.489H54.5713V107.598H55.8232L58.6254 112.113C59.2075 113.043 59.7297 114.01 60.1887 115.009H60.2276C60.1433 114.008 60.0979 112.791 60.0979 111.343V107.611H61.1682V116.489H60.02L57.2308 111.961C56.6161 111.012 56.0718 110.018 55.6027 108.987H55.5573C55.6157 109.888 55.6416 111.112 55.6416 112.666V116.489ZM62.7055 116.055L63.0038 115.087C63.609 115.475 64.312 115.676 65.0276 115.667C65.5116 115.695 65.9898 115.548 66.3769 115.252C66.5361 115.118 66.6628 114.948 66.7471 114.757C66.8315 114.565 66.8713 114.356 66.8633 114.146C66.8729 113.77 66.7353 113.406 66.4806 113.133C66.1027 112.798 65.6612 112.545 65.1833 112.389C63.6525 111.836 62.8979 111.009 62.9195 109.908C62.9128 109.576 62.9806 109.248 63.1177 108.947C63.2548 108.646 63.4577 108.38 63.7109 108.171C64.2927 107.706 65.0213 107.472 65.7606 107.512C66.4358 107.479 67.1077 107.629 67.7066 107.947L67.3952 108.888C66.8915 108.592 66.3162 108.447 65.7347 108.467C65.286 108.432 64.8416 108.576 64.4958 108.868C64.3672 108.991 64.2647 109.14 64.1947 109.304C64.1247 109.469 64.0885 109.646 64.0885 109.826C64.0885 110.005 64.1247 110.183 64.1947 110.347C64.2647 110.512 64.3672 110.66 64.4958 110.783C64.9003 111.106 65.3568 111.355 65.845 111.52C66.4501 111.737 67.0013 112.085 67.4601 112.541C67.8269 112.973 68.0192 113.53 67.9985 114.1C68.0059 114.446 67.9396 114.789 67.8041 115.106C67.6686 115.422 67.4672 115.706 67.2136 115.936C66.5758 116.47 65.7614 116.736 64.9368 116.68C64.5175 116.671 64.101 116.607 63.6979 116.489C63.3476 116.408 63.0125 116.271 62.7055 116.081V116.055Z" fill="#000003"/>
<path fill-rule="evenodd" clip-rule="evenodd" d="M0.797845 0H67.9985V98.3842H0C0.0259462 65.5873 0.0259462 32.7925 0 0H0.797845ZM66.3963 1.61901H1.60218V96.7455H66.3963V1.61901Z" fill="#000003"/>
<path fill-rule="evenodd" clip-rule="evenodd" d="M58.6454 86.9986C58.6554 87.1106 58.6423 87.2235 58.6069 87.3301C58.5715 87.4366 58.5146 87.5345 58.4398 87.6176C58.3651 87.7006 58.2741 87.7669 58.1727 87.8123C58.0712 87.8576 57.9616 87.8811 57.8508 87.8811C57.74 87.8811 57.6303 87.8576 57.5289 87.8123C57.4275 87.7669 57.3365 87.7006 57.2618 87.6176C57.187 87.5345 57.1301 87.4366 57.0947 87.3301C57.0593 87.2235 57.0462 87.1106 57.0562 86.9986L56.7189 48.7019H29.5403L17.1704 87.7621H9.87305L23.0667 47.9319L10.0222 11.1884C9.96656 10.9909 9.98696 10.7793 10.0793 10.5965C10.1716 10.4137 10.329 10.2734 10.5195 10.2039C10.7101 10.1345 10.9195 10.1411 11.1054 10.2225C11.2912 10.3038 11.4397 10.4538 11.5206 10.6421L24.7532 47.9122L12.0979 86.1431H15.9899L28.3792 47.0961H58.2951C58.4205 60.3991 58.5373 73.7 58.6454 86.9986Z" fill="#000003"/>
</svg>
