<svg width="20" height="20" viewBox="0 0 20 20" fill="none" xmlns="http://www.w3.org/2000/svg">
<path fill-rule="evenodd" clip-rule="evenodd" d="M19.9119 16.9096L19.6131 15.809C19.3142 14.6083 19.2146 13.4076 19.5135 12.307C19.9119 10.9062 20.0115 9.30531 19.6131 7.7044C18.7165 3.40194 14.8316 0 9.95046 0C3.97359 0 -0.7083 5.10291 0.0886168 11.1063C0.686304 15.709 4.87012 19.5111 9.95046 19.5111C10.7243 19.5111 11.1775 19.4306 11.6145 19.353C12.0214 19.2807 12.4142 19.211 13.0385 19.211C14.6323 19.211 16.8239 19.9114 16.8239 19.9114C18.7165 20.4116 20.41 18.7107 19.9119 16.9096ZM17.422 18.0101C17.422 18.0101 14.832 17.3097 13.0389 17.3097C12.2651 17.3097 11.8119 17.3902 11.3749 17.4678C10.968 17.5401 10.5752 17.6099 9.95089 17.6099C5.86669 17.6099 2.57941 14.6082 2.08133 10.9061C1.38403 6.00326 5.269 2.00098 9.95089 2.00098C13.8359 2.00098 16.9239 4.70252 17.7208 8.10446C18.0197 9.30514 17.9201 10.6059 17.6212 11.7065C17.2228 13.1073 17.2228 14.7082 17.6212 16.3091C17.6393 16.3575 17.6577 16.4062 17.6762 16.4551L17.6765 16.456C17.9637 17.2158 18.264 18.0101 17.422 18.0101ZM4.96983 11.9066C6.06559 11.9066 6.96212 11.0061 6.96212 9.90544C6.96212 8.80481 6.06559 7.9043 4.96983 7.9043C3.87407 7.9043 2.97754 8.80481 2.97754 9.90544C2.97754 11.0061 3.87407 11.9066 4.96983 11.9066ZM11.9426 9.90544C11.9426 11.0061 11.0461 11.9066 9.9503 11.9066C8.85454 11.9066 7.95801 11.0061 7.95801 9.90544C7.95801 8.80481 8.85454 7.9043 9.9503 7.9043C11.0461 7.9043 11.9426 8.80481 11.9426 9.90544ZM14.9308 11.9066C16.0265 11.9066 16.9231 11.0061 16.9231 9.90544C16.9231 8.80481 16.0265 7.9043 14.9308 7.9043C13.835 7.9043 12.9385 8.80481 12.9385 9.90544C12.9385 11.0061 13.835 11.9066 14.9308 11.9066Z" fill="#D7B256"/>
</svg>
