<svg width="131" height="105" viewBox="0 0 131 105" fill="none" xmlns="http://www.w3.org/2000/svg">
<ellipse cx="66.2221" cy="62.4864" rx="42.0101" ry="41.6904" fill="#EDEBE9" fill-opacity="0.1"/>
<path d="M107.732 62.4864C107.732 85.2316 89.1511 103.677 66.2221 103.677C43.293 103.677 24.7119 85.2316 24.7119 62.4864C24.7119 39.7411 43.293 21.296 66.2221 21.296C89.1511 21.296 107.732 39.7411 107.732 62.4864Z" stroke="white" stroke-opacity="0.5"/>
<path d="M4.59296 83.0374L4.26565 81.5627L8.47098 80.657L7.66552 77.0281C7.55214 76.5172 7.39679 76.0911 7.19949 75.7498C6.99252 75.4106 6.74359 75.1562 6.4527 74.9866C6.15214 74.819 5.87302 74.7024 5.61533 74.6367C5.35764 74.571 5.03121 74.515 4.63603 74.4688C4.55227 74.4566 4.40247 74.4434 4.18662 74.4293C3.95896 74.4076 3.78285 74.39 3.65828 74.3764C3.53371 74.3629 3.37103 74.3373 3.17024 74.2997C2.96944 74.2622 2.78691 74.2156 2.62265 74.1601L2.27607 72.5987C2.72267 72.7853 3.528 72.9451 4.69204 73.0782C5.04427 73.1134 5.33151 73.1526 5.55378 73.1956C5.76639 73.2407 6.02031 73.3123 6.31556 73.4103C6.60114 73.5104 6.85661 73.6573 7.08197 73.8512C7.29766 74.0471 7.48914 74.2937 7.65641 74.591C7.64493 74.2198 7.69625 73.8805 7.81036 73.5731C7.91266 73.2582 8.03854 73.0039 8.18799 72.8101C8.33531 72.6067 8.55833 72.4021 8.85708 72.1964C9.14615 71.9927 9.38578 71.8401 9.57596 71.7386C9.75647 71.6391 10.0256 71.5054 10.3834 71.3374C11.2526 70.918 11.9307 70.4588 12.4176 69.9601L12.7642 71.5216C12.5535 71.7588 12.3063 71.9686 12.0226 72.1509C11.7271 72.3256 11.3881 72.5097 11.0056 72.7032C10.621 72.887 10.3395 73.0335 10.1611 73.1426C9.5701 73.4921 9.1439 73.9222 8.88247 74.433C8.62105 74.9438 8.59302 75.6618 8.7984 76.5871L9.64557 80.4041L14.5035 79.3579L14.8308 80.8326L4.59296 83.0374Z" fill="white"/>
<path d="M9.22982 59.3898C10.3177 59.4088 11.2212 59.8441 11.9403 60.6958C12.6496 61.5474 12.9933 62.6986 12.9713 64.1495C12.9503 65.5412 12.6017 66.6754 11.9257 67.5521C11.2399 68.4188 10.3333 68.8423 9.20585 68.8227C8.50368 68.8104 7.88782 68.6516 7.35825 68.3462C6.82884 68.0309 6.42439 67.629 6.1449 67.1403C5.85553 66.6515 5.64549 66.1493 5.5148 65.6336C5.38426 65.1081 5.32294 64.5838 5.33085 64.0607C5.33996 63.4586 5.41777 62.8923 5.56429 62.3617C5.71095 61.8213 5.9312 61.3216 6.22501 60.8627C6.51883 60.4038 6.92496 60.0407 7.44341 59.7733C7.96185 59.5059 8.55732 59.3781 9.22982 59.3898ZM9.17888 60.7958C8.55583 60.7849 8.03378 60.9634 7.61274 61.3312C7.19185 61.6892 6.90358 62.1086 6.74791 62.5897C6.58237 63.0706 6.49556 63.5775 6.4875 64.1105C6.47436 64.979 6.70516 65.7432 7.1799 66.4031C7.64491 67.0529 8.29772 67.3852 9.13834 67.3999C9.89985 67.4131 10.5325 67.1132 11.0364 66.5C11.5304 65.8866 11.7851 65.0716 11.8005 64.055C11.8129 63.2358 11.6016 62.4917 11.1665 61.8226C10.7216 61.1534 10.0591 60.8111 9.17888 60.7958Z" fill="white"/>
<path d="M15.2991 49.1469L14.9714 50.5301L11.7071 49.7632L10.3931 55.3102L13.6574 56.0771L13.3298 57.4602L6.28124 55.8043L6.60889 54.4211L9.35319 55.0658L10.6672 49.5188L7.92289 48.8741L8.25054 47.4909L15.2991 49.1469Z" fill="white"/>
<path d="M17.4235 39.3517L18.3253 38.2863C18.7902 38.8971 19.0359 39.6232 19.0624 40.4645C19.0931 41.2969 18.875 42.2034 18.4081 43.1839C17.7798 44.5031 16.9811 45.4096 16.012 45.9035C15.0339 46.3932 13.9674 46.367 12.8126 45.8249C11.7383 45.3206 11.0944 44.5221 10.8809 43.4294C10.6627 42.3236 10.855 41.1379 11.4578 39.8721C11.9205 38.9006 12.4903 38.1756 13.1673 37.6972C13.8395 37.2057 14.5456 36.9537 15.2855 36.9411L15.0551 38.3217C13.9354 38.3959 13.072 39.0703 12.4649 40.3449C12.0701 41.1739 11.952 41.9855 12.1105 42.7797C12.2732 43.565 12.7574 44.1467 13.5631 44.5249C14.1182 44.7855 14.6667 44.8412 15.2087 44.6921C15.7418 44.5388 16.1863 44.284 16.5423 43.9276C16.8935 43.5581 17.1838 43.1326 17.413 42.6513C17.7144 42.0185 17.8612 41.4112 17.8534 40.8295C17.8499 40.2389 17.7066 39.7463 17.4235 39.3517Z" fill="white"/>
<path d="M20.6358 28.2705L18.6109 30.9922L23.5907 34.634L22.7419 35.775L17.7621 32.1332L15.7373 34.8549L14.8754 34.2245L19.7739 27.6401L20.6358 28.2705Z" fill="white"/>
<path d="M22.2503 25.175L23.3092 24.225L23.8295 24.7938C23.8479 24.4188 24.0214 23.9644 24.3499 23.4307C24.6791 22.8831 25.0643 22.4113 25.5055 22.0155C26.5203 21.105 27.5654 20.6521 28.6406 20.6566C29.7091 20.6539 30.6002 21.0427 31.3139 21.823C32.021 22.5961 32.3595 23.5005 32.3296 24.5364C32.3004 25.5583 31.7931 26.5114 30.8078 27.3954C29.69 28.3983 28.5912 28.8729 27.5114 28.8194L30.1427 31.6964L29.0838 32.6464L22.2503 25.175ZM30.1478 22.8095C29.6475 22.2626 29.0317 21.9919 28.3005 21.9974C27.5692 22.0029 26.8542 22.319 26.1556 22.9458C25.4203 23.6056 25.0278 24.2962 24.9782 25.0178C24.936 25.7328 25.1851 26.3857 25.7253 26.9764C26.0322 27.3119 26.3755 27.5482 26.7553 27.6854C27.1285 27.8153 27.4961 27.8439 27.8582 27.7714C28.2202 27.6988 28.5633 27.5835 28.8874 27.4256C29.2048 27.2603 29.4995 27.0556 29.7716 26.8115C30.4408 26.2111 30.8075 25.5435 30.8718 24.8087C30.9361 24.0739 30.6947 23.4075 30.1478 22.8095Z" fill="white"/>
<path d="M37.3559 14.2091L38.7144 13.4191L39.2346 22.304C39.2528 22.6248 39.256 22.8915 39.2444 23.104C39.2327 23.3165 39.1851 23.5556 39.1015 23.8213C39.023 24.0954 38.874 24.3478 38.6546 24.5782C38.4487 24.8122 38.1707 25.031 37.8204 25.2347C37.4102 25.4732 36.8929 25.7055 36.2685 25.9315L35.6175 24.8359C36.2742 24.6255 36.7392 24.4407 37.0126 24.2818C37.38 24.0681 37.6183 23.821 37.7275 23.5404C37.8502 23.2633 37.9041 22.8606 37.8891 22.3323L30.9863 17.913L32.3704 17.1081L37.8008 20.7038L37.3559 14.2091Z" fill="white"/>
<path d="M43.403 11.6921L44.3313 14.349L47.476 13.2779C47.8878 13.1376 48.1688 12.9376 48.3189 12.6778C48.4784 12.4149 48.5392 12.1542 48.5013 11.8959C48.4695 11.6251 48.4449 11.2996 48.4273 10.9196C48.4065 10.5303 48.4445 10.2044 48.5413 9.94194L49.9873 9.4494C49.8636 9.81491 49.7951 10.2034 49.7818 10.6148C49.7745 11.0136 49.7915 11.3469 49.8326 11.6146C49.8799 11.8697 49.86 12.1425 49.7729 12.4329C49.6826 12.714 49.4963 12.9601 49.2139 13.171C49.6298 13.1024 49.9942 13.1712 50.3072 13.3776C50.6202 13.5839 50.8587 13.8469 51.0228 14.1666C51.1962 14.4831 51.4282 14.8474 51.7188 15.2596C52.0062 15.6624 52.308 15.9717 52.6242 16.1874L51.1923 16.6751C50.9554 16.5367 50.7201 16.2831 50.4865 15.9141C50.2528 15.5451 50.0542 15.2163 49.8906 14.9278C49.7363 14.6361 49.4764 14.4169 49.1109 14.2701C48.7422 14.1141 48.2958 14.1253 47.7717 14.3038L44.6831 15.3559L45.7873 18.5162L44.4396 18.9752L42.0553 12.1512L43.403 11.6921Z" fill="white"/>
<path d="M60.8443 8.99032L57.4783 9.45034L58.3435 15.5497L56.9325 15.7425L56.0673 9.64318L52.7014 10.1032L52.5516 9.04755L60.6945 7.93467L60.8443 8.99032Z" fill="white"/>
<path d="M72.9641 12.1438C72.8989 13.2277 72.4247 14.1083 71.5416 14.7856C70.6592 15.4531 69.4923 15.7421 68.041 15.6526C66.649 15.5668 65.5286 15.1664 64.6798 14.4514C63.8415 13.7272 63.4561 12.8035 63.5237 11.6802C63.5659 10.9806 63.751 10.374 64.0793 9.86015C64.4173 9.34696 64.8369 8.96241 65.3378 8.70651C65.8394 8.44075 66.351 8.25474 66.8727 8.14846C67.4042 8.04279 67.9316 8.00609 68.4549 8.03836C69.0571 8.07551 69.6206 8.17949 70.1455 8.35032C70.6801 8.52175 71.1709 8.76465 71.6177 9.07901C72.0645 9.39337 72.4107 9.81526 72.6563 10.3447C72.9019 10.8741 73.0045 11.4738 72.9641 12.1438ZM71.5591 12.0275C71.5964 11.4067 71.44 10.8779 71.0898 10.4409C70.7494 10.0045 70.3418 9.69754 69.8669 9.51991C69.3927 9.33242 68.889 9.22223 68.3559 9.18935C67.4871 9.13576 66.7123 9.33028 66.0317 9.77289C65.3615 10.2063 65.0012 10.8417 64.9507 11.6792C64.9051 12.4379 65.1784 13.0828 65.7707 13.6138C66.3636 14.1349 67.1685 14.4269 68.1854 14.4896C69.0048 14.5402 69.7586 14.3641 70.4467 13.9615C71.1355 13.5491 71.5063 12.9044 71.5591 12.0275Z" fill="white"/>
<path d="M76.7628 9.36757L78.1336 9.75423L77.9226 10.4947C78.2527 10.3109 78.7324 10.2154 79.3618 10.2083C80.0034 10.1945 80.6098 10.2681 81.181 10.4292C82.4947 10.7997 83.4336 11.4389 83.9977 12.3467C84.5645 13.2451 84.7031 14.2021 84.4137 15.2179C84.1269 16.2242 83.5333 16.9901 82.6327 17.5156C81.7444 18.0342 80.6625 18.1137 79.3868 17.7538C77.9398 17.3457 76.954 16.6728 76.4293 15.735L75.362 19.4801L73.9912 19.0935L76.7628 9.36757ZM82.9551 14.7603C83.158 14.0483 83.0639 13.3859 82.6729 12.773C82.2819 12.1602 81.6342 11.7262 80.7298 11.4711C79.7778 11.2026 78.9806 11.2393 78.3381 11.5811C77.7051 11.9257 77.279 12.4824 77.0599 13.2514C76.9355 13.6881 76.915 14.1028 76.9985 14.4956C77.0847 14.8789 77.2544 15.2036 77.5076 15.4699C77.7608 15.7362 78.0405 15.9638 78.3466 16.1528C78.6555 16.3322 78.986 16.4716 79.3382 16.5709C80.2045 16.8153 80.9684 16.7692 81.63 16.4327C82.2915 16.0962 82.7332 15.5388 82.9551 14.7603Z" fill="white"/>
<path d="M98.4686 28.0981L97.4202 27.3461L100.895 22.5833L95.1787 25.7383L94.4075 25.1851L95.6234 18.8385L92.166 23.5773L91.1175 22.8253L95.3782 16.9855L96.9569 18.1179L95.6608 24.2976L101.151 21.1259L102.729 22.2583L98.4686 28.0981Z" fill="white"/>
<path d="M108.437 33.9343L103.463 28.4195C102.972 28.8933 102.72 29.5058 102.706 30.2572C102.706 31.0094 103.03 31.745 103.679 32.4642C104.076 32.9045 104.543 33.2234 105.08 33.4209C105.624 33.6257 106.165 33.6423 106.702 33.4707L107.328 34.7179C106.856 34.8584 106.386 34.9119 105.916 34.8784C105.454 34.8384 105.025 34.7236 104.628 34.534C104.238 34.3379 103.888 34.1197 103.578 33.8793C103.268 33.6389 102.977 33.3683 102.706 33.0674C101.879 32.1501 101.432 31.1464 101.367 30.0562C101.309 28.9595 101.728 28.0151 102.623 27.223C103.141 26.7647 103.685 26.4681 104.255 26.3331C104.839 26.199 105.387 26.209 105.899 26.3633C106.418 26.511 106.887 26.7221 107.308 26.9966C107.736 27.2645 108.115 27.5819 108.446 27.9488C108.963 28.5212 109.323 29.1196 109.527 29.744C109.738 30.3758 109.797 30.9502 109.704 31.4673C109.626 31.9852 109.488 32.444 109.29 32.8438C109.099 33.2369 108.867 33.5546 108.593 33.7968L108.437 33.9343ZM104.281 27.7553L108.163 32.0593C108.82 30.8846 108.671 29.7688 107.718 28.7121C107.261 28.2057 106.729 27.8588 106.12 27.6712C105.512 27.4836 104.899 27.5117 104.281 27.7553Z" fill="white"/>
<path d="M119.906 38.7794L120.633 40.0368C119.471 40.614 118.362 40.038 117.306 38.3088C116.953 37.7369 116.603 37.2596 116.256 36.8768C115.915 36.5026 115.535 36.201 115.117 35.9718C114.708 35.7379 114.259 35.6228 113.771 35.6266C113.282 35.6305 112.758 35.7508 112.198 35.9876C112.845 36.0195 113.448 36.263 114.007 36.7182C114.581 37.1771 115.07 37.7573 115.475 38.4587C116.122 39.5792 116.405 40.6508 116.322 41.6734C116.239 42.696 115.673 43.5039 114.623 44.0973C113.565 44.6955 112.509 44.7646 111.456 44.3047C110.408 43.8533 109.543 43.0374 108.861 41.857C108.144 40.6167 107.876 39.4408 108.055 38.3294C108.24 37.2264 108.952 36.3248 110.191 35.6245C110.914 35.2159 111.583 34.9116 112.198 34.7116C112.821 34.5067 113.38 34.4175 113.875 34.4442C114.378 34.466 114.83 34.5457 115.229 34.6833C115.628 34.8208 116.015 35.056 116.39 35.3887C116.778 35.7252 117.109 36.0603 117.381 36.3941C117.659 36.7364 117.973 37.1606 118.322 37.6666C118.512 37.9562 118.679 38.1854 118.822 38.3542C118.979 38.5266 119.155 38.6649 119.353 38.769C119.55 38.8732 119.734 38.8766 119.906 38.7794ZM113.806 42.7719C114.529 42.3634 114.932 41.8065 115.016 41.1012C115.113 40.3997 114.936 39.6597 114.487 38.8813C113.355 36.9225 112.053 36.3589 110.582 37.1906C109.868 37.5942 109.451 38.1871 109.332 38.9692C109.222 39.7464 109.392 40.5242 109.842 41.3026C110.301 42.0981 110.882 42.6491 111.584 42.9557C112.291 43.2709 113.032 43.2096 113.806 42.7719Z" fill="white"/>
<path d="M117.875 54.7003L115.59 47.6399C114.949 47.8732 114.468 48.3302 114.148 49.0109C113.84 49.698 113.835 50.502 114.133 51.4227C114.315 51.9864 114.611 52.4677 115.021 52.8666C115.434 53.2748 115.92 53.5097 116.481 53.5712L116.542 54.9651C116.054 54.9016 115.602 54.7592 115.188 54.5379C114.783 54.3136 114.438 54.0341 114.153 53.6994C113.877 53.3618 113.647 53.0202 113.463 52.6746C113.278 52.329 113.123 51.9636 112.999 51.5784C112.619 50.404 112.622 49.3055 113.008 48.283C113.404 47.2576 114.172 46.565 115.313 46.2053C115.973 45.9972 116.591 45.9474 117.166 46.0558C117.754 46.1707 118.25 46.4027 118.654 46.7516C119.068 47.0976 119.41 47.4814 119.682 47.9031C119.963 48.3218 120.179 48.7661 120.331 49.2358C120.568 49.9687 120.652 50.6618 120.583 51.3151C120.517 51.9779 120.336 52.5267 120.04 52.9616C119.757 53.4029 119.443 53.7659 119.099 54.0505C118.764 54.3321 118.422 54.5279 118.073 54.6379L117.875 54.7003ZM116.608 47.3655L118.391 52.8758C119.471 52.0695 119.792 50.9899 119.354 49.637C119.144 48.9887 118.8 48.4553 118.322 48.0367C117.843 47.618 117.272 47.3943 116.608 47.3655Z" fill="white"/>
<path d="M115.613 65.8085L115.47 64.3942L121.612 63.7968L121.163 59.3772L120.011 59.4892C118.682 59.6185 117.659 59.6336 116.944 59.5346C116.229 59.4455 115.699 59.2193 115.354 58.8561C115.019 58.5018 114.815 57.9564 114.74 57.2198L114.699 56.822L115.762 56.7186L115.803 57.1164C115.856 57.5377 116.005 57.8356 116.252 58.01C116.499 58.1942 116.912 58.2979 117.491 58.3209C118.08 58.343 118.995 58.2937 120.235 58.1731L122.095 57.9921L122.819 65.1077L115.613 65.8085Z" fill="white"/>
<path d="M114.429 77.366L114.593 75.9541L119.589 76.5384L116.243 70.2587L115.271 70.145L115.435 68.7331L122.627 69.5742L122.462 70.9861L117.614 70.419L120.96 76.6987L121.785 76.7952L121.62 78.2071L114.429 77.366Z" fill="white"/>
<path fill-rule="evenodd" clip-rule="evenodd" d="M75.6408 67.2679L81.992 63.0048L76.9962 52.9453L70.6444 57.2084L74.3113 49.8246L65.6582 44.0166L61.9917 51.3997V42.8741H52V73.0759C52 76.2784 54.2411 78.8839 56.9958 78.8839H82.9742V67.2679H75.6408ZM76.6317 54.532L80.6284 62.5796L73.6437 67.2679H57.668L76.6317 54.532ZM66.025 45.6033L72.9472 50.2497L68.9141 58.3699L55.0791 67.6564L66.025 45.6033ZM52.999 44.0357H60.9924V53.4116L52.999 69.5076V44.0357ZM56.9957 77.7223C54.792 77.7223 52.999 75.6379 52.999 73.076C52.999 72.2756 53.1739 71.5223 53.4816 70.8643L53.4851 70.8666L53.5725 70.69C53.9092 70.0395 54.3778 69.4941 54.9363 69.1015L55.1417 68.9638C55.6966 68.624 56.3267 68.4294 56.9956 68.4294H81.9748V77.7223H56.9957ZM56.996 70.1719C55.6186 70.1719 54.498 71.4746 54.498 73.076C54.498 74.6773 55.6186 75.9801 56.996 75.9801C58.3734 75.9801 59.494 74.6773 59.494 73.076C59.494 71.4746 58.3734 70.1719 56.996 70.1719ZM56.9959 74.8184C56.1696 74.8184 55.4971 74.0366 55.4971 73.0759C55.4971 72.1153 56.1696 71.3335 56.9959 71.3335C57.8222 71.3335 58.4947 72.1153 58.4947 73.0759C58.4947 74.0366 57.8222 74.8184 56.9959 74.8184ZM62.9912 74.8184H79.9772V75.9801H62.9912V74.8184ZM60.4941 74.8184H61.9928V75.9801H60.4941V74.8184Z" fill="white"/>
</svg>
