<svg width="28" height="27" viewBox="0 0 28 27" fill="none" xmlns="http://www.w3.org/2000/svg">
<circle cx="13.9802" cy="13.1364" r="12.6364" fill="white" stroke="#DDDBDB"/>
<path d="M16.8744 15.0657C16.5605 14.8644 16.3781 14.5058 16.3983 14.1298C16.4025 14.0526 16.4034 13.9741 16.4009 13.8964C16.3793 13.2092 16.0962 12.5619 15.6039 12.0737C15.1116 11.5855 14.462 11.3079 13.7747 11.2918C13.043 11.2745 12.3523 11.5465 11.8296 12.0572C11.3066 12.5681 11.0186 13.2519 11.0186 13.9829C11.0186 14.0324 11.02 14.0826 11.0227 14.132C11.0432 14.5064 10.8608 14.8642 10.5465 15.0657C9.73371 15.5869 9.26 16.5103 9.31028 17.4755C9.34494 18.141 9.62666 18.7681 10.1035 19.2413C10.5803 19.7144 11.2095 19.9914 11.8753 20.0212C11.9158 20.023 11.9562 20.0239 11.9966 20.0239C12.4281 20.0239 12.8538 19.9209 13.2348 19.7234C13.5327 19.569 13.8883 19.569 14.1862 19.7234C14.6029 19.9394 15.0731 20.0423 15.5457 20.0212C16.2115 19.9914 16.8407 19.7145 17.3175 19.2413C17.7944 18.7681 18.0761 18.141 18.1108 17.4755C18.1609 16.5103 17.6872 15.5869 16.8744 15.0657Z" fill="#AAA3A3"/>
<path d="M10.3227 11.4084C10.3227 11.1986 10.2601 10.8118 9.71894 9.87891C9.43981 9.39773 9.16473 8.99862 9.15315 8.98185C9.0768 8.87128 8.95099 8.8053 8.81662 8.8053C8.68224 8.8053 8.55646 8.87128 8.48009 8.98185C8.46852 8.99859 8.19345 9.3977 7.91429 9.87891C7.37315 10.8118 7.31055 11.1986 7.31055 11.4084C7.31055 12.2388 7.98617 12.9144 8.81659 12.9144C9.64701 12.9144 10.3227 12.2388 10.3227 11.4084Z" fill="#AAA3A3"/>
<path d="M19.506 9.87891C19.2269 9.3977 18.9518 8.99859 18.9403 8.98185C18.8639 8.87128 18.7381 8.8053 18.6037 8.8053C18.4694 8.8053 18.3435 8.87128 18.2672 8.98185C18.2556 8.99862 17.9806 9.39773 17.7014 9.87891C17.1603 10.8118 17.0977 11.1986 17.0977 11.4084C17.0977 12.2388 17.7733 12.9144 18.6037 12.9144C19.4341 12.9144 20.1097 12.2388 20.1097 11.4084C20.1098 11.1986 20.0472 10.8118 19.506 9.87891Z" fill="#AAA3A3"/>
<path d="M11.8117 10.1721C12.6422 10.1721 13.3178 9.49651 13.3178 8.66607C13.3178 8.45627 13.2552 8.06946 12.714 7.1366C12.4349 6.65542 12.1599 6.25631 12.1483 6.23954C12.0719 6.12897 11.9461 6.06299 11.8117 6.06299C11.6774 6.06299 11.5516 6.12897 11.4752 6.23954C11.4636 6.25631 11.1886 6.65542 10.9094 7.1366C10.3683 8.06946 10.3057 8.45625 10.3057 8.66607C10.3057 9.49651 10.9813 10.1721 11.8117 10.1721Z" fill="#AAA3A3"/>
<path d="M15.6086 10.1721C16.4391 10.1721 17.1146 9.49651 17.1146 8.66607C17.1146 8.45627 17.0521 8.06946 16.5109 7.1366C16.2318 6.65542 15.9567 6.25631 15.9451 6.23954C15.8688 6.12897 15.743 6.06299 15.6086 6.06299C15.4743 6.06299 15.3484 6.12897 15.2721 6.23954C15.2605 6.25631 14.9854 6.65542 14.7063 7.1366C14.1651 8.06946 14.1025 8.45625 14.1025 8.66607C14.1026 9.49651 14.7782 10.1721 15.6086 10.1721Z" fill="#AAA3A3"/>
</svg>
