<svg width="32" height="32" viewBox="0 0 32 32" fill="none" xmlns="http://www.w3.org/2000/svg">
<g clip-path="url(#clip0)">
<path d="M2.48012 20.9083C1.11258 20.9083 0 22.0068 0 23.357C0 24.7073 1.11258 25.8058 2.48012 25.8058V28.4382C2.48012 28.7763 2.75771 29.0504 3.10016 29.0504H13.3927C13.7351 29.0504 14.0127 28.7763 14.0127 28.4382V25.081C14.0127 24.8819 13.9147 24.6953 13.75 24.5806C13.5853 24.466 13.3743 24.4375 13.1845 24.5043C13.0371 24.5562 12.9024 24.5814 12.7726 24.5814C12.0889 24.5814 11.5326 24.0322 11.5326 23.357C11.5326 22.6819 12.0889 22.1327 12.7726 22.1327C12.9024 22.1327 13.0371 22.1579 13.1845 22.2097C13.3744 22.2767 13.5853 22.2481 13.75 22.1335C13.9147 22.0187 14.0127 21.8321 14.0127 21.6331V18.2759C14.0127 17.9377 13.7351 17.6637 13.3927 17.6637H10.7265C10.7265 16.3134 9.61396 15.2149 8.24641 15.2149C6.87887 15.2149 5.76629 16.3134 5.76629 17.6637H3.10016C2.75771 17.6637 2.48012 17.9377 2.48012 18.2759V20.9083ZM2.89195 22.2097C3.08186 22.2767 3.2928 22.2481 3.45748 22.1335C3.62222 22.0187 3.72019 21.8321 3.72019 21.6331V18.888H6.50041C6.70198 18.888 6.89096 18.7913 7.00716 18.6287C7.12329 18.466 7.15212 18.2577 7.08441 18.0703C7.0319 17.9248 7.00635 17.7918 7.00635 17.6637C7.00635 16.9885 7.56264 16.4393 8.24641 16.4393C8.93019 16.4393 9.48648 16.9885 9.48648 17.6637C9.48648 17.7918 9.46093 17.9248 9.40841 18.0703C9.34071 18.2577 9.36954 18.466 9.48567 18.6287C9.60186 18.7913 9.79085 18.888 9.99242 18.888H12.7726V20.9083C11.4051 20.9083 10.2925 22.0068 10.2925 23.357C10.2925 24.7073 11.4051 25.8058 12.7726 25.8058V27.826H3.72019V25.081C3.72019 24.8819 3.62216 24.6953 3.45748 24.5806C3.29274 24.466 3.0818 24.4375 2.89195 24.5043C2.74463 24.5562 2.6099 24.5814 2.48012 24.5814C1.79635 24.5814 1.24006 24.0322 1.24006 23.357C1.24006 22.6819 1.79635 22.1327 2.48012 22.1327C2.6099 22.1327 2.74463 22.1579 2.89195 22.2097Z" fill="#CF9E23"/>
<path d="M29.265 5.84837V3.21595C29.265 2.87784 28.9874 2.60376 28.645 2.60376H18.3525C18.01 2.60376 17.7324 2.87784 17.7324 3.21595V6.5732C17.7324 6.77223 17.8304 6.95882 17.9951 7.07355C18.1599 7.18821 18.3708 7.21674 18.5607 7.14983C18.708 7.09797 18.8427 7.07275 18.9725 7.07275C19.6563 7.07275 20.2125 7.62201 20.2125 8.29713C20.2125 8.97226 19.6563 9.52151 18.9725 9.52151C18.8427 9.52151 18.708 9.49629 18.5607 9.44444C18.3708 9.37759 18.1599 9.40605 17.9951 9.52072C17.8304 9.63544 17.7324 9.82204 17.7324 10.0211V13.3783C17.7324 13.7164 18.01 13.9905 18.3525 13.9905H21.0186C21.0186 15.3408 22.1312 16.4393 23.4987 16.4393C24.8663 16.4393 25.9788 15.3408 25.9788 13.9905H28.645C28.9874 13.9905 29.265 13.7164 29.265 13.3783V10.7459C30.6326 10.7459 31.7451 9.64738 31.7451 8.29713C31.7451 6.94688 30.6326 5.84837 29.265 5.84837ZM29.265 9.52151C29.1352 9.52151 29.0005 9.49629 28.8532 9.44444C28.6633 9.37759 28.4524 9.40605 28.2877 9.52072C28.1229 9.63544 28.0249 9.82204 28.0249 10.0211V12.7661H25.2447C25.0432 12.7661 24.8542 12.8629 24.738 13.0255C24.6218 13.1882 24.593 13.3964 24.6607 13.5839C24.7132 13.7293 24.7388 13.8623 24.7388 13.9905C24.7388 14.6656 24.1825 15.2149 23.4987 15.2149C22.8149 15.2149 22.2587 14.6656 22.2587 13.9905C22.2587 13.8624 22.2842 13.7293 22.3367 13.5839C22.4044 13.3964 22.3756 13.1882 22.2595 13.0255C22.1433 12.8628 21.9543 12.7661 21.7527 12.7661H18.9725V10.7459C20.34 10.7459 21.4526 9.64738 21.4526 8.29713C21.4526 6.94688 20.34 5.84837 18.9725 5.84837V3.82814H28.0249V6.5732C28.0249 6.77223 28.123 6.95882 28.2877 7.07355C28.4525 7.18821 28.6633 7.21674 28.8532 7.14983C29.0005 7.09797 29.1352 7.07275 29.265 7.07275C29.9488 7.07275 30.5051 7.62201 30.5051 8.29713C30.5051 8.97226 29.9488 9.52151 29.265 9.52151Z" fill="#CF9E23"/>
<path d="M13.393 2.60379H10.7269C10.7269 1.25354 9.6143 0.155029 8.24676 0.155029C6.87922 0.155029 5.76663 1.25354 5.76663 2.60379H3.1005C2.75806 2.60379 2.48047 2.87787 2.48047 3.21598V13.3783C2.48047 13.7165 2.75806 13.9905 3.1005 13.9905H6.50075C6.70232 13.9905 6.89131 13.8937 7.0075 13.7311C7.12363 13.5685 7.15247 13.3602 7.08476 13.1728C7.03224 13.0273 7.0067 12.8943 7.0067 12.7662C7.0067 12.091 7.56299 11.5418 8.24676 11.5418C8.93053 11.5418 9.48682 12.091 9.48682 12.7662C9.48682 12.8943 9.46128 13.0273 9.40876 13.1728C9.34105 13.3602 9.36988 13.5685 9.48602 13.7311C9.60221 13.8938 9.7912 13.9905 9.99277 13.9905H13.393C13.7355 13.9905 14.0131 13.7165 14.0131 13.3783V10.7459C15.3806 10.7459 16.4932 9.64741 16.4932 8.29716C16.4932 6.94692 15.3806 5.8484 14.0131 5.8484V3.21598C14.0131 2.87787 13.7355 2.60379 13.393 2.60379ZM15.2531 8.29716C15.2531 8.97229 14.6968 9.52154 14.0131 9.52154C13.8833 9.52154 13.7485 9.49632 13.6012 9.44447C13.4113 9.37762 13.2004 9.40609 13.0357 9.52075C12.871 9.63547 12.773 9.82207 12.773 10.0211V12.7662H10.7269C10.7269 11.4159 9.6143 10.3174 8.24676 10.3174C6.87922 10.3174 5.76663 11.4159 5.76663 12.7662H3.72053V3.82817H6.50075C6.70232 3.82817 6.89131 3.73138 7.0075 3.56879C7.12363 3.40613 7.15247 3.19786 7.08476 3.01041C7.03224 2.86495 7.0067 2.73192 7.0067 2.60379C7.0067 1.92867 7.56299 1.37941 8.24676 1.37941C8.93053 1.37941 9.48682 1.92867 9.48682 2.60379C9.48682 2.73192 9.46128 2.86495 9.40876 3.01041C9.34105 3.19786 9.36988 3.40613 9.48602 3.56879C9.60221 3.73145 9.7912 3.82817 9.99277 3.82817H12.773V6.57323C12.773 6.77226 12.871 6.95885 13.0357 7.07358C13.2004 7.18824 13.4113 7.21677 13.6012 7.14986C13.7485 7.098 13.8832 7.07278 14.0131 7.07278C14.6968 7.07278 15.2531 7.62204 15.2531 8.29716Z" fill="#CF9E23"/>
<path d="M28.6454 23.9692C28.9879 23.9692 29.2655 23.6952 29.2655 23.3571C29.2655 23.019 28.9879 22.7449 28.6454 22.7449C28.303 22.7449 28.0254 23.019 28.0254 23.3571C28.0254 23.6952 28.303 23.9692 28.6454 23.9692Z" fill="#CF9E23"/>
<path d="M22.2601 17.9231C22.1439 17.7604 21.9549 17.6637 21.7533 17.6637H18.3531C18.0106 17.6637 17.7331 17.9378 17.7331 18.2759V20.9083C16.3655 20.9083 15.2529 22.0068 15.2529 23.3571C15.2529 24.7073 16.3655 25.8058 17.7331 25.8058V28.4383C17.7331 28.7764 18.0106 29.0504 18.3531 29.0504H21.0192C21.0192 30.4007 22.1318 31.4992 23.4993 31.4992C24.8669 31.4992 25.9795 30.4007 25.9795 29.0504H28.6456C28.988 29.0504 29.2656 28.7764 29.2656 28.4383V26.1119C29.2656 25.7738 28.988 25.4997 28.6456 25.4997C28.3032 25.4997 28.0256 25.7738 28.0256 26.1119V27.8261H25.2454C25.0438 27.8261 24.8548 27.9228 24.7386 28.0854C24.6225 28.2481 24.5936 28.4564 24.6613 28.6438C24.7139 28.7893 24.7394 28.9222 24.7394 29.0504C24.7394 29.7256 24.1831 30.2748 23.4993 30.2748C22.8156 30.2748 22.2593 29.7256 22.2593 29.0504C22.2593 28.9223 22.2848 28.7893 22.3373 28.6438C22.4051 28.4564 22.3762 28.2481 22.2601 28.0854C22.1439 27.9228 21.9549 27.8261 21.7533 27.8261H18.9731V25.081C18.9731 24.882 18.8751 24.6954 18.7104 24.5807C18.5456 24.466 18.3348 24.4375 18.1449 24.5044C17.9976 24.5562 17.8628 24.5815 17.7331 24.5815C17.0493 24.5815 16.493 24.0322 16.493 23.3571C16.493 22.6819 17.0493 22.1327 17.7331 22.1327C17.8628 22.1327 17.9976 22.1579 18.1449 22.2098C18.3348 22.2767 18.5457 22.2481 18.7104 22.1335C18.8752 22.0188 18.9731 21.8322 18.9731 21.6331V18.8881H21.0192C21.0192 20.2383 22.1318 21.3368 23.4993 21.3368C24.8669 21.3368 25.9795 20.2383 25.9795 18.8881H28.0256V20.6022C28.0256 20.9403 28.3032 21.2144 28.6456 21.2144C28.988 21.2144 29.2656 20.9403 29.2656 20.6022V18.2759C29.2656 17.9378 28.988 17.6637 28.6456 17.6637H25.2454C25.0438 17.6637 24.8548 17.7605 24.7386 17.9231C24.6225 18.0857 24.5936 18.294 24.6613 18.4815C24.7139 18.6269 24.7394 18.7599 24.7394 18.8881C24.7394 19.5632 24.1831 20.1125 23.4993 20.1125C22.8156 20.1125 22.2593 19.5632 22.2593 18.8881C22.2593 18.7599 22.2848 18.6269 22.3373 18.4815C22.4051 18.294 22.3762 18.0858 22.2601 17.9231Z" fill="#CF9E23"/>
</g>
<defs>
<clipPath id="clip0">
<rect width="31.7456" height="31.3442" fill="white" transform="translate(0 0.155029)"/>
</clipPath>
</defs>
</svg>
