<svg width="40" height="36" viewBox="0 0 40 36" fill="none" xmlns="http://www.w3.org/2000/svg">
<path d="M16.5921 9.48031C18.3456 9.48031 19.7723 8.22818 19.7723 6.68907C19.7723 5.14997 18.3456 3.89777 16.5921 3.89777C14.8387 3.89777 13.4121 5.14997 13.4121 6.68907C13.4121 8.22818 14.8387 9.48031 16.5921 9.48031ZM16.5921 4.93401C17.6947 4.93401 18.5917 5.72129 18.5917 6.68907C18.5917 7.65679 17.6947 8.44406 16.5921 8.44406C15.4896 8.44406 14.5927 7.65679 14.5927 6.68907C14.5927 5.72136 15.4896 4.93401 16.5921 4.93401Z" fill="#CF9E23"/>
<path d="M15.4235 30.1892C17.4302 30.1892 19.0628 28.7562 19.0628 26.9948C19.0628 25.2334 17.4302 23.8004 15.4235 23.8004C13.4168 23.8004 11.7842 25.2334 11.7842 26.9948C11.7842 28.7562 13.4168 30.1892 15.4235 30.1892ZM15.4235 24.8367C16.7793 24.8367 17.8822 25.8048 17.8822 26.9948C17.8822 28.1848 16.7792 29.1529 15.4235 29.1529C14.0678 29.1529 12.9648 28.1848 12.9648 26.9948C12.9648 25.8048 14.0677 24.8367 15.4235 24.8367Z" fill="#CF9E23"/>
<path d="M10.2109 9.09344C8.08336 9.09344 6.35254 10.6126 6.35254 12.48C6.35254 14.3473 8.08336 15.8665 10.2109 15.8665C12.3384 15.8665 14.0692 14.3473 14.0692 12.48C14.0692 10.6126 12.3384 9.09344 10.2109 9.09344ZM10.2109 14.8303C8.73434 14.8303 7.53313 13.776 7.53313 12.48C7.53313 11.1841 8.73441 10.1297 10.2109 10.1297C11.6873 10.1297 12.8886 11.1841 12.8886 12.48C12.8886 13.776 11.6874 14.8303 10.2109 14.8303Z" fill="#CF9E23"/>
<path d="M9.10638 24.0905C11.2339 24.0905 12.9647 22.5713 12.9647 20.704C12.9647 18.8367 11.2339 17.3175 9.10638 17.3175C6.97887 17.3175 5.24805 18.8367 5.24805 20.704C5.24805 22.5713 6.97887 24.0905 9.10638 24.0905ZM9.10638 18.3536C10.5829 18.3536 11.7841 19.408 11.7841 20.7039C11.7841 21.9999 10.5828 23.0542 9.10638 23.0542C7.62993 23.0542 6.42864 21.9999 6.42864 20.7039C6.42864 19.408 7.62985 18.3536 9.10638 18.3536Z" fill="#CF9E23"/>
<path d="M12.9509 33.8813C13.2712 33.933 13.579 33.7462 13.6376 33.4647C13.6963 33.1832 13.4837 32.9133 13.163 32.8619C10.9004 32.4993 8.87642 31.5141 7.30979 30.0129C2.74652 25.6401 0.714817 20.9237 1.27103 15.9947C2.52615 4.871 15.8907 -0.665752 28.2158 1.49795C29.8809 1.79024 30.5294 2.98148 30.5786 3.9127C30.6273 4.8319 30.1146 6.05458 28.5091 6.47556C26.4348 7.01944 24.7948 7.81326 23.6345 8.83491C20.9752 11.1766 20.7448 15.1276 23.2841 17.7889C24.538 19.1031 25.34 20.6966 25.6094 22.4054C24.2726 25.0722 22.9057 28.0922 21.8478 30.8874C20.1482 32.1197 17.9977 32.8664 15.7731 32.9939C15.4478 33.0126 15.2013 33.2591 15.2225 33.5447C15.243 33.8188 15.5026 34.0291 15.8111 34.0291C15.824 34.0291 15.837 34.0288 15.8501 34.028C17.7656 33.9182 19.6322 33.3942 21.2551 32.5258C20.9118 33.5756 21.4723 34.6753 22.5995 35.1507C23.8032 35.6585 25.2605 35.2562 25.9173 34.236C27.054 32.4708 28.2857 30.3283 29.4789 28.0402C29.6147 27.78 29.4843 27.4725 29.188 27.3534C28.8914 27.2343 28.5412 27.3488 28.4055 27.6089C27.226 29.8708 26.0101 31.9861 24.8896 33.7262C24.5372 34.2734 23.7561 34.4887 23.1109 34.2168C22.5003 33.9593 22.1995 33.3608 22.3954 32.7937C23.9192 28.3817 26.4606 23.0113 28.7886 18.8587L31.9614 20.0507C31.2216 21.8202 30.3789 23.6626 29.5191 25.4095C29.3899 25.6722 29.5279 25.977 29.8272 26.0904C30.127 26.2039 30.4739 26.0827 30.6031 25.8199C32.2227 22.521 34.0303 18.4005 35.0852 14.934C35.4602 14.8158 35.7311 14.5777 35.8748 14.2832L36.3856 13.2356C36.4951 13.0112 36.5193 12.7733 36.4715 12.5496C37.4541 11.9991 38.8294 11.0171 39.5421 9.55578C40.4225 7.75067 39.8374 4.6925 39.4103 3.03025C39.3285 2.71179 39.0754 2.44486 38.7334 2.31636C38.3914 2.18787 37.9967 2.21129 37.6777 2.37923C36.0126 3.25553 33.0877 4.99501 32.2073 6.79997C31.4949 8.2607 31.6344 9.81152 31.8587 10.8155C31.6353 10.9427 31.4598 11.1249 31.3527 11.3446L30.8418 12.3921C30.697 12.689 30.69 13.0243 30.8503 13.3428C29.2663 15.621 27.6938 18.3861 26.4253 20.8121C25.9798 19.4621 25.2234 18.2076 24.1893 17.1237C23.1991 16.0859 22.697 14.8695 22.697 13.5083C22.697 10.5707 24.7662 8.53862 28.8471 7.46854C30.7056 6.98124 31.8481 5.56666 31.758 3.86476C31.6835 2.45715 30.6309 0.865304 28.4473 0.48197C15.4545 -1.79897 1.42395 4.12769 0.096113 15.8926C-0.494572 21.1272 1.63953 26.1135 6.43923 30.7128C8.18122 32.3821 10.4329 33.4778 12.9509 33.8813ZM31.7557 14.0301C32.5293 14.3207 33.1199 14.5426 33.8935 14.8333C33.5076 16.079 32.9849 17.5267 32.3621 19.0741L29.3169 17.9299C30.1629 16.466 30.9953 15.1347 31.7557 14.0301ZM35.3003 12.8278L34.7894 13.8753C34.7481 13.9599 34.6402 13.9867 34.5592 13.9562L32.0191 13.0018C31.9368 12.9709 31.8862 12.8834 31.927 12.7999L32.4379 11.7522C32.4777 11.6708 32.583 11.6393 32.6682 11.6714L35.2081 12.6257C35.29 12.6565 35.3404 12.7456 35.3003 12.8278ZM33.2925 7.20769C33.551 6.6777 34.5528 5.23513 38.2638 3.27881C39.2131 6.98621 38.7151 8.61786 38.4566 9.14792C37.8471 10.3977 36.6211 11.2463 35.7693 11.7135C35.7377 11.699 35.7054 11.6854 35.6726 11.6731L33.1326 10.7188H33.1325C33.0997 10.7065 33.0663 10.6953 33.0325 10.6853C32.8299 9.82174 32.6831 8.45738 33.2925 7.20769Z" fill="#CF9E23"/>
</svg>
