<svg width="31" height="31" viewBox="0 0 31 31" fill="none" xmlns="http://www.w3.org/2000/svg">
<path d="M30.8571 20.7464C30.8358 20.7176 30.8119 20.6911 30.7857 20.668C30.7856 20.6679 30.7854 20.6678 30.7852 20.6675C30.7615 20.6466 30.736 20.6285 30.7093 20.6135L26.6435 18.2264L30.7018 15.8438C30.8297 15.7756 30.9285 15.6361 30.9622 15.4609C30.9837 15.3485 30.9759 15.2345 30.9438 15.1326C30.9234 15.0673 30.8934 15.0085 30.8563 14.9583C30.8354 14.9301 30.8121 14.9045 30.7865 14.8818C30.7865 14.8817 30.7865 14.8817 30.7865 14.8817C30.7863 14.8815 30.7862 14.8815 30.7861 14.8813C30.762 14.86 30.7363 14.8416 30.7092 14.8263L26.6435 12.4394L30.7018 10.0567C30.8297 9.98845 30.9285 9.84903 30.9622 9.67381C30.9836 9.56171 30.9759 9.44812 30.9441 9.3463C30.9237 9.28117 30.894 9.22243 30.857 9.17227C30.8358 9.14346 30.8119 9.11703 30.7856 9.09389C30.7856 9.09374 30.7854 9.09366 30.7851 9.09344C30.7614 9.07252 30.736 9.05436 30.7093 9.0394L22.2051 4.0465C21.9798 3.91408 21.7097 4.03161 21.6022 4.30911C21.4946 4.58645 21.5902 4.91858 21.8156 5.05093L29.4716 9.54593L15.4748 17.7636L1.50103 9.54593L15.4748 1.32827L18.8649 3.3186C19.0901 3.45109 19.3602 3.33348 19.4678 3.05599C19.5753 2.77864 19.4798 2.44651 19.2543 2.31417L15.6694 0.209358C15.5461 0.136858 15.4029 0.136932 15.2796 0.209507L0.272165 9.03508C0.144396 9.10341 0.0457256 9.24276 0.0121499 9.41783C-0.00938694 9.52993 -0.00164336 9.64352 0.0302384 9.74534C0.0505048 9.81047 0.0802692 9.8692 0.117233 9.91937C0.138467 9.94818 0.162363 9.9746 0.188619 9.99775C0.1888 9.99798 0.188982 9.99805 0.189103 9.9982C0.212757 10.019 0.238105 10.0371 0.264724 10.0521L4.32405 12.4393L0.272225 14.8221C0.144456 14.8904 0.0457256 15.0298 0.0121499 15.2049C-0.00932644 15.3169 -0.00164335 15.4304 0.0301174 15.5322C0.0506863 15.5983 0.0809347 15.6577 0.118624 15.7083C0.139254 15.7361 0.162363 15.7614 0.187651 15.7839C0.187832 15.7841 0.187893 15.7841 0.188135 15.7844C0.212152 15.8056 0.237924 15.8241 0.265087 15.8394L4.32411 18.2264L0.272225 20.6092C0.144396 20.6774 0.0457256 20.8168 0.0121499 20.9919C-0.00938694 21.1043 -0.00158286 21.2181 0.0304199 21.32C0.0504443 21.384 0.0796037 21.4419 0.115781 21.4915C0.115902 21.4916 0.116023 21.4918 0.116083 21.4918C0.138407 21.5224 0.163634 21.5502 0.191462 21.5744C0.191704 21.5745 0.191825 21.5747 0.192007 21.5748C0.214814 21.5946 0.239134 21.6118 0.264724 21.6262L15.2798 30.4562C15.3415 30.4926 15.4081 30.5106 15.4748 30.5106C15.5414 30.5106 15.608 30.4926 15.6695 30.4564L30.7018 21.6308C30.8297 21.5625 30.9285 21.4231 30.9622 21.2479C30.9836 21.1358 30.9759 21.0222 30.9441 20.9204C30.9238 20.8553 30.894 20.7965 30.8571 20.7464ZM15.4749 29.3375L1.50116 21.1199L5.37276 18.8431L8.03619 20.4095C8.09917 20.4465 8.16553 20.464 8.23093 20.464C8.39972 20.464 8.56167 20.3472 8.63929 20.1474C8.74703 19.8701 8.65163 19.5379 8.42628 19.4054L5.64512 17.7698C5.60199 17.7317 5.55377 17.7038 5.50301 17.6863L1.50116 15.3328L5.3727 13.0561L15.2797 18.8821C15.3414 18.9185 15.408 18.9365 15.4747 18.9365C15.5413 18.9365 15.6079 18.9185 15.6695 18.8823L25.6003 13.0518C25.6193 13.0678 25.6392 13.0827 25.6606 13.0953L29.4716 15.3328L15.4749 23.5505L11.3334 21.115C11.1079 20.9823 10.838 21.0999 10.7304 21.3771C10.6226 21.6543 10.718 21.9865 10.9434 22.119L15.2798 24.6692C15.3415 24.7055 15.4081 24.7236 15.4749 24.7236C15.5414 24.7236 15.608 24.7055 15.6696 24.6693L25.5936 18.8429L29.4718 21.1199L15.4749 29.3375Z" fill="#CF9E23"/>
</svg>
