<svg width="30" height="31" viewBox="0 0 30 31" fill="none" xmlns="http://www.w3.org/2000/svg">
<path d="M25.6064 4.65114C22.7933 1.77223 18.978 0.154967 14.9997 0.155029C14.7325 0.155029 14.5158 0.376755 14.5158 0.650229V4.61183C14.5158 4.8853 14.7325 5.10703 14.9997 5.10703C15.2669 5.10703 15.4836 4.8853 15.4836 4.61183V1.15385C23.2288 1.4272 29.2909 8.07458 29.0238 16.0011C28.7568 23.9277 22.2615 30.1318 14.5162 29.8584C6.77105 29.585 0.708871 22.9376 0.975968 15.0112C1.09845 11.376 2.56427 7.92373 5.07744 5.35172C5.26306 5.155 5.25774 4.84148 5.06552 4.65151C4.87802 4.46618 4.58075 4.46618 4.39325 4.65151C-1.46456 10.6466 -1.46437 20.3664 4.39355 26.3614C10.2515 32.3563 19.749 32.3562 25.6068 26.3611C31.4646 20.366 31.4644 10.6461 25.6064 4.65114Z" fill="#CF9E23"/>
<path d="M14.9983 13.5254C14.6538 13.5271 14.3163 13.6241 14.0213 13.8062L7.1286 6.75202C6.93639 6.56205 6.63003 6.5675 6.44441 6.76422C6.26332 6.95611 6.26332 7.26035 6.44441 7.45224L13.3371 14.5064C13.1593 14.8082 13.0645 15.1537 13.0628 15.5062C13.0628 16.6002 13.9293 17.487 14.9983 17.487C16.0672 17.487 16.9338 16.6002 16.9338 15.5062C16.9338 14.4122 16.0672 13.5254 14.9983 13.5254ZM14.9983 16.4966C14.4638 16.4966 14.0305 16.0532 14.0305 15.5062C14.0305 14.9592 14.4638 14.5158 14.9983 14.5158C15.5328 14.5158 15.966 14.9592 15.966 15.5062C15.966 16.0532 15.5328 16.4966 14.9983 16.4966Z" fill="#CF9E23"/>
</svg>
