<svg width="18" height="19" viewBox="0 0 18 19" fill="none" xmlns="http://www.w3.org/2000/svg">
<path fill-rule="evenodd" clip-rule="evenodd" d="M17.3591 16.9378L13.4402 13.1432C16.1861 10.4534 16.2698 6.13563 13.6301 3.34692C10.9903 0.55821 6.56323 0.287373 3.5857 2.73244C0.608169 5.1775 0.135988 9.4715 2.5144 12.4748C4.89282 15.4781 9.27849 16.1257 12.4647 13.9442L16.46 17.8338C16.7106 18.0612 17.1012 18.0545 17.3435 17.8186C17.5858 17.5827 17.5927 17.2024 17.3591 16.9584V16.9378ZM2.38184 8.1877C2.38184 4.99513 5.04025 2.40704 8.31957 2.40704C11.5989 2.40704 14.2573 4.99513 14.2573 8.1877C14.2573 11.3803 11.5989 13.9684 8.31957 13.9684C5.04025 13.9684 2.38184 11.3803 2.38184 8.1877Z" fill="#0F0F0F"/>
<path d="M17.3591 16.9378H17.6091V16.8318L17.533 16.7582L17.3591 16.9378ZM13.4402 13.1432L13.2653 12.9646L13.0819 13.1442L13.2663 13.3228L13.4402 13.1432ZM12.4647 13.9442L12.6391 13.7651L12.4924 13.6223L12.3235 13.7379L12.4647 13.9442ZM16.46 17.8338L16.2855 18.013L16.292 18.0189L16.46 17.8338ZM17.3591 16.9584H17.1091V17.0588L17.1785 17.1313L17.3591 16.9584ZM17.533 16.7582L13.6141 12.9636L13.2663 13.3228L17.1852 17.1174L17.533 16.7582ZM13.6152 13.3218C16.4583 10.5367 16.5453 6.063 13.8116 3.17506L13.4485 3.51878C15.9943 6.20826 15.9139 10.3701 13.2653 12.9646L13.6152 13.3218ZM13.8116 3.17506C11.0812 0.29052 6.50546 0.0113291 3.42705 2.53923L3.74436 2.92564C6.62101 0.563417 10.8995 0.8259 13.4485 3.51878L13.8116 3.17506ZM3.42705 2.53923C0.345151 5.06999 -0.145453 9.5188 2.31842 12.63L2.71039 12.3196C0.417429 9.42419 0.871187 5.28501 3.74436 2.92564L3.42705 2.53923ZM2.31842 12.63C4.77942 15.7375 9.31275 16.4052 12.606 14.1505L12.3235 13.7379C9.24424 15.8462 5.00622 15.2186 2.71039 12.3196L2.31842 12.63ZM12.2904 14.1233L16.2856 18.0129L16.6344 17.6546L12.6391 13.7651L12.2904 14.1233ZM16.292 18.0189C16.6403 18.3349 17.1809 18.3258 17.5179 17.9977L17.1691 17.6395C17.0216 17.7831 16.7809 17.7874 16.6279 17.6486L16.292 18.0189ZM17.5179 17.9977C17.8583 17.6663 17.8683 17.1289 17.5397 16.7856L17.1785 17.1313C17.317 17.276 17.3132 17.4992 17.1691 17.6395L17.5179 17.9977ZM17.6091 16.9584V16.9378H17.1091V16.9584H17.6091ZM2.63184 8.1877C2.63184 5.13948 5.17196 2.65704 8.31957 2.65704V2.15704C4.90854 2.15704 2.13184 4.85078 2.13184 8.1877H2.63184ZM8.31957 2.65704C11.4672 2.65704 14.0073 5.13948 14.0073 8.1877H14.5073C14.5073 4.85078 11.7306 2.15704 8.31957 2.15704V2.65704ZM14.0073 8.1877C14.0073 11.2359 11.4672 13.7184 8.31957 13.7184V14.2184C11.7306 14.2184 14.5073 11.5246 14.5073 8.1877H14.0073ZM8.31957 13.7184C5.17196 13.7184 2.63184 11.2359 2.63184 8.1877H2.13184C2.13184 11.5246 4.90854 14.2184 8.31957 14.2184V13.7184Z" fill="#1C1C1C"/>
</svg>
