<svg width="15" height="17" viewBox="0 0 15 17" fill="none" xmlns="http://www.w3.org/2000/svg">
<path fill-rule="evenodd" clip-rule="evenodd" d="M12.874 15.5653H1.66211V6.41827H2.90829V7.66137C2.90829 8.05756 3.28028 8.37878 3.73908 8.37878C4.19789 8.37878 4.56987 8.05756 4.56987 7.66137V6.41827H9.97V7.66137C9.97 8.05756 10.342 8.37878 10.8008 8.37878C11.2596 8.37878 11.6316 8.05756 11.6316 7.66137V6.41827H12.8776L12.874 15.5653ZM4.56836 4.65588C4.56836 3.35306 5.81414 2.29309 7.2242 2.29309H7.31268C8.72295 2.29309 9.96852 3.35306 9.96852 4.65588V4.98338H4.56836V4.65588ZM14.2958 5.20739C14.14 5.07288 13.9286 4.98338 13.7082 4.98338H11.6312V4.65589C11.6312 2.56195 9.64022 0.858276 7.31376 0.858276H7.22528C4.89883 0.858276 2.90781 2.56195 2.90781 4.65589V4.98338H0.830802C0.371992 4.98338 0 5.3324 0 5.72859V16.2826C0 16.6788 0.371992 17 0.830802 17H13.7043C14.1629 17 14.5349 16.679 14.5351 16.2828L14.539 5.72196C14.5393 5.53166 14.4516 5.34209 14.2958 5.20739Z" fill="#151515"/>
</svg>
