<svg width="30" height="16" viewBox="0 0 30 16" fill="none" xmlns="http://www.w3.org/2000/svg">
<path d="M27.3633 4.6875H25.3125V2.63672C25.3125 1.18283 24.1297 0 22.6758 0H7.32422C5.87033 0 4.6875 1.18283 4.6875 2.63672V4.6875H2.63672C1.18283 4.6875 0 5.87033 0 7.32422V15.2344H30V7.32422C30 5.87033 28.8172 4.6875 27.3633 4.6875ZM4.6875 13.4766H1.75781V7.32422C1.75781 6.83959 2.15209 6.44531 2.63672 6.44531H4.6875V13.4766ZM23.5547 13.4766H6.44531V6.44531H23.5547V13.4766ZM23.5547 4.6875H6.44531V2.63672C6.44531 2.15209 6.83959 1.75781 7.32422 1.75781H22.6758C23.1604 1.75781 23.5547 2.15209 23.5547 2.63672V4.6875ZM28.2422 13.4766H25.3125V6.44531H27.3633C27.8479 6.44531 28.2422 6.83959 28.2422 7.32422V13.4766Z" fill="#D7B256"/>
</svg>
