<svg width="19" height="19" viewBox="0 0 19 19" fill="none" xmlns="http://www.w3.org/2000/svg">
<path fill-rule="evenodd" clip-rule="evenodd" d="M2.47769 5.97231C2.93382 5.97231 3.30365 5.60249 3.30365 5.14635V0.82596C3.30365 0.369824 2.93382 0 2.47769 0C2.02155 0 1.65173 0.369824 1.65173 0.82596V5.14635C1.65173 5.60249 2.02155 5.97231 2.47769 5.97231ZM2.47769 13.066C2.02155 13.066 1.65173 13.4361 1.65173 13.892V18.1711C1.65173 18.6272 2.02155 18.997 2.47769 18.997C2.93382 18.997 3.30365 18.6272 3.30365 18.1711V13.892C3.30365 13.4361 2.93382 13.066 2.47769 13.066ZM9.49843 10.0573C9.95457 10.0573 10.3244 9.68748 10.3244 9.23134V0.82596C10.3244 0.369824 9.95457 0 9.49843 0C9.0423 0 8.67247 0.369824 8.67247 0.82596V9.23134C8.67247 9.68748 9.0423 10.0573 9.49843 10.0573ZM9.49843 16.8702C9.0423 16.8702 8.67247 17.24 8.67247 17.6962V18.1711C8.67247 18.6272 9.0423 18.997 9.49843 18.997C9.95457 18.997 10.3244 18.6272 10.3244 18.1711V17.6962C10.3244 17.24 9.95457 16.8702 9.49843 16.8702ZM17.3449 5.91225C17.3449 5.45281 16.9805 5.07906 16.5324 5.07906C16.0843 5.07906 15.7198 5.45281 15.7198 5.91225C15.7198 6.37169 16.0843 6.74543 16.5324 6.74543C16.9805 6.74543 17.3449 6.37169 17.3449 5.91225ZM18.997 5.91224C18.997 7.28251 17.8915 8.39735 16.5326 8.39735C15.1737 8.39735 14.0681 7.28251 14.0681 5.91224C14.0681 4.54197 15.1737 3.42713 16.5326 3.42713C17.8915 3.42713 18.997 4.54197 18.997 5.91224ZM10.3113 13.5611C10.3113 13.1016 9.94681 12.7279 9.49872 12.7279C9.05064 12.7279 8.68619 13.1016 8.68619 13.5611C8.68619 14.0205 9.05064 14.3942 9.49872 14.3942C9.94681 14.3942 10.3113 14.0205 10.3113 13.5611ZM11.963 13.5611C11.963 14.9313 10.8574 16.0462 9.49852 16.0462C8.1396 16.0462 7.03406 14.9313 7.03406 13.5611C7.03406 12.1908 8.1396 11.0759 9.49852 11.0759C10.8574 11.0759 11.963 12.1908 11.963 13.5611ZM3.2768 9.49855C3.2768 9.03932 2.91235 8.66536 2.46427 8.66536C2.01618 8.66536 1.65173 9.03932 1.65173 9.49855C1.65173 9.95799 2.01618 10.3317 2.46427 10.3317C2.91235 10.3317 3.2768 9.95799 3.2768 9.49855ZM4.92892 9.49854C4.92892 10.8688 3.82337 11.9837 2.46446 11.9837C1.10555 11.9837 0 10.8688 0 9.49854C0 8.12828 1.10555 7.01344 2.46446 7.01344C3.82337 7.01344 4.92892 8.12828 4.92892 9.49854ZM16.5192 2.35874C16.9753 2.35874 17.3451 1.98891 17.3451 1.53278V0.82596C17.3451 0.369824 16.9753 0 16.5192 0C16.063 0 15.6932 0.369824 15.6932 0.82596V1.53278C15.6932 1.98891 16.063 2.35874 16.5192 2.35874ZM17.3451 10.0864V18.1711C17.3451 18.6273 16.9753 18.9971 16.5192 18.9971C16.063 18.9971 15.6932 18.6273 15.6932 18.1711V10.0864C15.6932 9.63028 16.063 9.26046 16.5192 9.26046C16.9753 9.26046 17.3451 9.63028 17.3451 10.0864Z" fill="white"/>
</svg>
